<?xml version="1.0" standalone="no"?>
<!DOCTYPE svg PUBLIC "-//W3C//DTD SVG 20010904//EN"
 "http://www.w3.org/TR/2001/REC-SVG-20010904/DTD/svg10.dtd">
<svg version="1.0" xmlns="http://www.w3.org/2000/svg"
 width="512.000000pt" height="512.000000pt" viewBox="0 0 512.000000 512.000000"
 preserveAspectRatio="xMidYMid meet">
<metadata>
Created by potrace 1.14, written by Peter Selinger 2001-2017
</metadata>
<g transform="translate(0.000000,512.000000) scale(0.100000,-0.100000)"
fill="#000000" stroke="none">
<path d="M1509 5116 c-2 -2 -29 -7 -59 -10 -650 -77 -1207 -559 -1389 -1201
-44 -159 -55 -246 -56 -445 0 -318 55 -529 216 -830 11 -19 104 -165 208 -325
104 -159 229 -352 278 -427 96 -150 120 -170 172 -149 38 16 51 46 38 91 -5
19 -12 37 -16 40 -13 10 -538 826 -573 890 -171 317 -219 705 -135 1075 16 71
76 225 120 312 158 312 444 582 747 707 25 10 59 25 76 32 52 23 213 63 314
78 64 10 144 13 245 11 175 -5 197 -8 328 -40 577 -146 1015 -613 1123 -1200
12 -67 18 -149 19 -250 0 -167 -7 -240 -34 -355 -47 -194 -111 -335 -252 -553
-52 -80 -114 -178 -139 -216 -45 -72 -258 -398 -426 -656 -50 -77 -176 -270
-279 -430 -295 -455 -318 -489 -335 -502 -19 -16 -60 -16 -81 0 -9 7 -134 194
-278 417 -144 223 -271 413 -283 423 -11 9 -31 17 -45 17 -32 0 -73 -42 -73
-75 0 -16 39 -85 99 -178 55 -84 133 -204 174 -267 291 -448 283 -437 333
-466 41 -24 60 -29 114 -29 71 1 117 19 160 64 14 14 71 98 128 186 57 88 134
206 170 263 37 56 157 241 267 410 109 169 246 379 304 467 324 497 420 651
467 750 81 169 134 349 152 515 14 126 6 427 -13 482 -2 7 -7 29 -10 48 -5 32
-10 55 -34 143 -69 253 -247 540 -457 736 -258 241 -539 375 -914 437 -39 7
-365 15 -371 10z"/>
<path d="M1539 4515 c-2 -2 -24 -6 -49 -10 -256 -36 -517 -196 -685 -420 -67
-89 -141 -246 -171 -360 -33 -126 -41 -326 -18 -449 84 -442 412 -771 859
-861 71 -14 282 -14 365 1 339 61 616 269 770 579 122 247 142 539 54 802
-112 334 -396 599 -740 689 -79 21 -128 27 -240 30 -78 1 -143 1 -145 -1z
m365 -180 c251 -74 454 -242 567 -470 70 -141 91 -231 93 -385 0 -69 -2 -146
-7 -172 -41 -250 -215 -502 -435 -631 -142 -83 -278 -120 -447 -121 -137 -1
-184 5 -280 35 -301 93 -533 335 -616 644 -32 116 -32 336 -1 450 85 311 318
553 619 645 107 32 156 38 293 35 100 -3 143 -9 214 -30z"/>
<path d="M1544 3905 c-125 -34 -239 -126 -293 -240 -66 -138 -67 -276 -1 -410
69 -143 215 -239 380 -251 257 -19 476 177 486 438 8 204 -113 383 -306 454
-60 21 -201 26 -266 9z m223 -156 c72 -28 144 -94 174 -162 34 -76 33 -193 -3
-262 -32 -60 -87 -115 -148 -146 -64 -33 -184 -33 -255 -1 -151 69 -222 245
-160 396 64 157 234 233 392 175z"/>
<path d="M4025 3169 c-110 -16 -133 -22 -217 -53 -241 -90 -434 -269 -544
-501 -64 -135 -85 -226 -89 -381 -4 -151 15 -265 65 -390 39 -98 53 -122 325
-539 125 -192 248 -381 273 -420 162 -252 177 -267 278 -280 65 -9 125 8 170
47 19 17 68 81 107 142 40 61 129 198 197 303 69 106 185 284 258 395 136 208
197 321 227 418 70 230 53 483 -45 696 -97 211 -270 385 -476 480 -64 30 -231
80 -274 83 -99 6 -215 6 -255 0z m310 -164 c82 -20 213 -79 281 -126 217 -149
355 -417 352 -683 -3 -176 -46 -311 -153 -476 -39 -61 -77 -119 -243 -375
-318 -490 -378 -578 -398 -587 -58 -26 -77 -3 -359 437 -32 50 -155 240 -279
430 -176 269 -219 391 -211 600 4 127 11 162 46 260 99 273 339 474 634 530
83 16 246 11 330 -10z"/>
<path d="M4075 2569 c-98 -19 -190 -81 -244 -164 -77 -120 -79 -281 -4 -400
173 -275 589 -214 678 99 75 260 -164 518 -430 465z m178 -172 c155 -86 152
-313 -5 -391 -142 -71 -308 18 -325 173 -19 178 174 306 330 218z"/>
<path d="M920 444 c-98 -34 -159 -107 -167 -200 -14 -163 139 -282 295 -230
49 17 105 65 132 115 10 20 19 21 138 21 l127 -1 26 -43 c51 -83 178 -128 263
-92 53 22 100 61 122 101 l19 35 1032 0 c901 0 1033 -2 1033 -15 0 -19 54 -80
93 -104 42 -26 122 -36 173 -22 23 6 62 29 87 51 104 92 101 244 -6 335 -105
90 -254 65 -334 -56 l-26 -39 -1026 0 -1026 0 -19 34 c-53 99 -182 142 -286
95 -45 -20 -105 -78 -116 -111 -5 -16 -20 -18 -134 -18 l-128 0 -28 43 c-38
61 -100 98 -172 103 -31 2 -64 1 -72 -2z m105 -169 c14 -13 25 -36 25 -50 0
-33 -42 -75 -75 -75 -33 0 -75 42 -75 75 0 33 42 75 75 75 14 0 37 -11 50 -25z
m682 3 c25 -27 29 -44 20 -79 -7 -26 -43 -49 -75 -49 -26 1 -52 25 -61 57 -20
70 67 123 116 71z m2488 -3 c14 -13 25 -36 25 -50 0 -33 -42 -75 -75 -75 -33
0 -75 42 -75 75 0 33 42 75 75 75 14 0 37 -11 50 -25z"/>
</g>
</svg>
